<?xml version="1.0" encoding="utf-8"?>
<!-- Generator: Adobe Illustrator 28.3.0, SVG Export Plug-In . SVG Version: 6.00 Build 0)  -->
<svg version="1.1" id="Layer_1" xmlns="http://www.w3.org/2000/svg" xmlns:xlink="http://www.w3.org/1999/xlink" x="0px" y="0px"
	 viewBox="0 0 412.4 204" style="enable-background:new 0 0 412.4 204;" xml:space="preserve">
<style type="text/css">
	.st0{fill-rule:evenodd;clip-rule:evenodd;fill:url(#SVGID_1_);}
	.st1{fill-rule:evenodd;clip-rule:evenodd;fill:#FFFFFF;}
</style>
<g>
	
		<linearGradient id="SVGID_1_" gradientUnits="userSpaceOnUse" x1="206.19" y1="206" x2="206.19" y2="2" gradientTransform="matrix(1 0 0 -1 0 206)">
		<stop  offset="0" style="stop-color:#00B8F1"/>
		<stop  offset="2.000000e-02" style="stop-color:#01B6F0"/>
		<stop  offset="0.31" style="stop-color:#0D90D9"/>
		<stop  offset="0.58" style="stop-color:#1775C8"/>
		<stop  offset="0.82" style="stop-color:#1C65BF"/>
		<stop  offset="1" style="stop-color:#1E5FBB"/>
	</linearGradient>
	<polyline class="st0" points="0,204 208.4,204 412.4,0 0,0 0,204 	"/>
	<path class="st1" d="M244.7,38.4h-40.6v96.5l-35.5-96.6h-35.2l-30.3,80.7C100,98.7,79,91.7,62.4,86.4C51.5,82.9,39.8,77.7,40,72
		c0.1-4.7,6.2-9,18.4-8.4c8.2,0.4,15.4,1.1,29.7,8l14.1-24.5c-13.1-6.6-31.2-10.9-46-10.9h-0.1c-17.3,0-31.7,5.6-40.6,14.8
		c-6.2,6.3-9.7,14.8-9.7,23.7C5.5,87.2,10.1,96,19.7,103c8.1,5.9,18.5,9.8,27.6,12.6c11.3,3.5,20.5,6.5,20.4,13
		c-0.1,2.4-1,4.7-2.7,6.4c-2.8,2.9-7.1,4-13.1,4.1c-11.5,0.2-20-1.6-33.6-9.6L5.8,154.4c14,8,29.9,12.2,46,12.2h2.1
		c14.2-0.2,25.7-4.3,34.9-11.7c0.5-0.4,1-0.8,1.5-1.3l-4.1,10.9H123l6.2-18.8c7,2.3,14.3,3.5,21.7,3.4c7.2,0,14.3-1.1,21.2-3.2
		l6,18.6h60.1v-39h13.1c31.7,0,50.5-16.2,50.5-43.2C301.7,52.2,283.5,38.4,244.7,38.4z M150.9,121c-4.4,0-8.8-0.7-13-2.3l12.9-40.6
		h0.2l12.6,40.7C159.6,120.3,155.2,121,150.9,121z M247.1,97.7h-8.9V64.9h8.9c11.9,0,21.4,4,21.4,16.1
		C268.5,93.7,259,97.6,247.1,97.7"/>
</g>
</svg>
